<svg width="554" height="426" viewBox="0 0 554 426" fill="none" xmlns="http://www.w3.org/2000/svg">
<g filter="url(#filter0_b_701_2257)">
<rect width="554" height="426" rx="8" fill="url(#paint0_linear_701_2257)"/>
<g filter="url(#filter1_d_701_2257)">
<path d="M277 213C277 168.874 313.771 132.103 357.897 132.103C395.698 132.103 428.056 159.02 436.587 194.467C438.794 203.881 431.881 213 422.32 213H277ZM277 213C277 257.126 240.229 293.897 196.103 293.897C158.302 293.897 125.944 266.98 117.413 231.533C115.206 222.119 122.119 213 131.68 213H277ZM277 213C232.874 213 196.103 176.229 196.103 132.103C196.103 94.3023 223.02 61.9435 258.467 53.4126C267.881 51.2063 277 58.1193 277 67.6799V213ZM277 213C321.126 213 357.897 249.771 357.897 293.897C357.897 331.698 330.98 364.056 295.533 372.587C286.119 374.794 277 367.881 277 358.32V213Z" fill="url(#paint1_linear_701_2257)" shape-rendering="crispEdges"/>
<path d="M277.502 212.5C277.778 168.873 314.214 132.603 357.897 132.603C395.457 132.603 427.621 159.352 436.101 194.581C438.237 203.699 431.541 212.5 422.32 212.5H277.502ZM276.5 67.6799V212.498C232.873 212.222 196.603 175.786 196.603 132.103C196.603 94.5421 223.353 62.3784 258.583 53.899C267.7 51.7633 276.5 58.4598 276.5 67.6799ZM131.68 213.5H276.498C276.222 257.127 239.786 293.397 196.103 293.397C158.542 293.397 126.378 266.647 117.899 231.417C115.763 222.3 122.46 213.5 131.68 213.5ZM277.5 213.502C321.127 213.778 357.397 250.214 357.397 293.897C357.397 331.457 330.648 363.621 295.419 372.101C286.301 374.237 277.5 367.541 277.5 358.32V213.502Z" stroke="url(#paint2_linear_701_2257)" shape-rendering="crispEdges"/>
</g>
<g filter="url(#filter2_d_701_2257)">
<path d="M277 213C236.332 195.877 216.712 147.718 233.835 107.05C248.504 72.2114 285.869 52.8337 321.849 58.727C331.381 60.3466 337.103 70.2567 333.393 79.068L277 213ZM277 213C317.668 230.123 337.288 278.283 320.165 318.95C305.496 353.789 268.131 373.166 232.151 367.273C222.619 365.653 216.897 355.743 220.607 346.932L277 213ZM277 213C259.877 253.668 211.718 273.288 171.05 256.165C136.211 241.496 116.834 204.131 122.727 168.151C124.347 158.619 134.257 152.897 143.068 156.607L277 213ZM277 213C294.123 172.332 342.282 152.712 382.95 169.836C417.789 184.505 437.166 221.869 431.273 257.849C429.653 267.381 419.743 273.103 410.932 269.393L277 213Z" fill="url(#paint3_linear_701_2257)" shape-rendering="crispEdges"/>
<path d="M276.734 212.344C236.633 195.159 217.345 147.503 234.296 107.244C248.872 72.627 286.006 53.3642 321.765 59.22C330.997 60.7886 336.51 70.376 332.932 78.874L276.734 212.344ZM142.874 157.068L276.344 213.266C259.159 253.367 211.503 272.655 171.244 255.704C136.626 241.128 117.364 203.993 123.22 168.233C124.79 159.002 134.376 153.49 142.874 157.068ZM221.068 347.126L277.266 213.656C317.367 230.841 336.655 278.497 319.704 318.756C305.128 353.374 267.993 372.637 232.233 366.78C223.002 365.21 217.49 355.624 221.068 347.126ZM277.656 212.734C294.841 172.633 342.497 153.345 382.756 170.296C417.373 184.872 436.636 222.006 430.78 257.765C429.211 266.997 419.624 272.51 411.126 268.932L277.656 212.734Z" stroke="url(#paint4_linear_701_2257)" shape-rendering="crispEdges"/>
</g>
<rect x="0.25" y="0.25" width="553.5" height="425.5" rx="7.75" stroke="url(#paint5_linear_701_2257)" stroke-width="0.5"/>
</g>
<defs>
<filter id="filter0_b_701_2257" x="-48" y="-48" width="650" height="522" filterUnits="userSpaceOnUse" color-interpolation-filters="sRGB">
<feFlood flood-opacity="0" result="BackgroundImageFix"/>
<feGaussianBlur in="BackgroundImageFix" stdDeviation="24"/>
<feComposite in2="SourceAlpha" operator="in" result="effect1_backgroundBlur_701_2257"/>
<feBlend mode="normal" in="SourceGraphic" in2="effect1_backgroundBlur_701_2257" result="shape"/>
</filter>
<filter id="filter1_d_701_2257" x="117" y="53" width="332" height="332" filterUnits="userSpaceOnUse" color-interpolation-filters="sRGB">
<feFlood flood-opacity="0" result="BackgroundImageFix"/>
<feColorMatrix in="SourceAlpha" type="matrix" values="0 0 0 0 0 0 0 0 0 0 0 0 0 0 0 0 0 0 127 0" result="hardAlpha"/>
<feOffset dx="8" dy="8"/>
<feGaussianBlur stdDeviation="2"/>
<feComposite in2="hardAlpha" operator="out"/>
<feColorMatrix type="matrix" values="0 0 0 0 0 0 0 0 0 0 0 0 0 0 0 0 0 0 1 0"/>
<feBlend mode="normal" in2="BackgroundImageFix" result="effect1_dropShadow_701_2257"/>
<feBlend mode="normal" in="SourceGraphic" in2="effect1_dropShadow_701_2257" result="shape"/>
</filter>
<filter id="filter2_d_701_2257" x="121.68" y="57.6802" width="322.64" height="322.64" filterUnits="userSpaceOnUse" color-interpolation-filters="sRGB">
<feFlood flood-opacity="0" result="BackgroundImageFix"/>
<feColorMatrix in="SourceAlpha" type="matrix" values="0 0 0 0 0 0 0 0 0 0 0 0 0 0 0 0 0 0 127 0" result="hardAlpha"/>
<feOffset dx="8" dy="8"/>
<feGaussianBlur stdDeviation="2"/>
<feComposite in2="hardAlpha" operator="out"/>
<feColorMatrix type="matrix" values="0 0 0 0 0 0 0 0 0 0 0 0 0 0 0 0 0 0 1 0"/>
<feBlend mode="normal" in2="BackgroundImageFix" result="effect1_dropShadow_701_2257"/>
<feBlend mode="normal" in="SourceGraphic" in2="effect1_dropShadow_701_2257" result="shape"/>
</filter>
<linearGradient id="paint0_linear_701_2257" x1="523.38" y1="380.774" x2="-48.8079" y2="281.6" gradientUnits="userSpaceOnUse">
<stop stop-color="#182644" stop-opacity="0.39"/>
<stop offset="1" stop-color="#050510" stop-opacity="0.54"/>
<stop offset="1" stop-color="#050510" stop-opacity="0.33"/>
</linearGradient>
<linearGradient id="paint1_linear_701_2257" x1="419.314" y1="339.027" x2="84.8206" y2="294.447" gradientUnits="userSpaceOnUse">
<stop stop-color="#182644" stop-opacity="0.39"/>
<stop offset="1" stop-color="#050510" stop-opacity="0.54"/>
</linearGradient>
<linearGradient id="paint2_linear_701_2257" x1="132.118" y1="96.3333" x2="448.016" y2="140.377" gradientUnits="userSpaceOnUse">
<stop stop-color="#343836"/>
<stop offset="0.625" stop-color="#9400D9"/>
<stop offset="1" stop-color="#174AFF"/>
</linearGradient>
<linearGradient id="paint3_linear_701_2257" x1="448.377" y1="130.745" x2="277.487" y2="421.726" gradientUnits="userSpaceOnUse">
<stop stop-color="#182644" stop-opacity="0.39"/>
<stop offset="1" stop-color="#050510" stop-opacity="0.54"/>
</linearGradient>
<linearGradient id="paint4_linear_701_2257" x1="113.253" y1="301.255" x2="276.432" y2="27.204" gradientUnits="userSpaceOnUse">
<stop stop-color="#343836"/>
<stop offset="0.625" stop-color="#9400D9"/>
<stop offset="1" stop-color="#174AFF"/>
</linearGradient>
<linearGradient id="paint5_linear_701_2257" x1="26.1732" y1="57.6875" x2="565.956" y2="155.558" gradientUnits="userSpaceOnUse">
<stop stop-color="#343836"/>
<stop offset="0.625" stop-color="#A100D9" stop-opacity="0.54"/>
<stop offset="1" stop-color="#174AFF"/>
</linearGradient>
</defs>
</svg>
