<svg width="169" height="161" viewBox="0 0 169 161" fill="none" xmlns="http://www.w3.org/2000/svg">
<path d="M67.0048 12.25C69.8916 7.25001 77.1084 7.25 79.9952 12.25L129.792 98.5C132.678 103.5 129.07 109.75 123.296 109.75H23.7036C17.93 109.75 14.3216 103.5 17.2083 98.5L67.0048 12.25Z" fill="url(#paint0_linear_701_2354)" stroke="#1D2939"/>
<path d="M86.5048 21.25C89.3916 16.25 96.6084 16.25 99.4952 21.25L151.457 111.25C154.343 116.25 150.735 122.5 144.962 122.5H41.0385C35.265 122.5 31.6565 116.25 34.5433 111.25L86.5048 21.25Z" fill="url(#paint1_linear_701_2354)" stroke="#1D2939"/>
<defs>
<linearGradient id="paint0_linear_701_2354" x1="138.875" y1="131.394" x2="-14.7824" y2="110.915" gradientUnits="userSpaceOnUse">
<stop stop-color="#182644" stop-opacity="0.39"/>
<stop offset="1" stop-color="#050510" stop-opacity="0.54"/>
</linearGradient>
<linearGradient id="paint1_linear_701_2354" x1="160.599" y1="144.863" x2="1.71477" y2="123.687" gradientUnits="userSpaceOnUse">
<stop stop-color="#182644" stop-opacity="0.39"/>
<stop offset="1" stop-color="#050510" stop-opacity="0.54"/>
</linearGradient>
</defs>
</svg>
