<svg width="36" height="36" viewBox="0 0 36 36" fill="none" xmlns="http://www.w3.org/2000/svg">
<path d="M18 11.25C16.665 11.25 15.3599 11.6459 14.2499 12.3876C13.1399 13.1293 12.2747 14.1835 11.7638 15.4169C11.2529 16.6503 11.1192 18.0075 11.3797 19.3169C11.6402 20.6262 12.283 21.829 13.227 22.773C14.171 23.717 15.3738 24.3599 16.6831 24.6203C17.9925 24.8808 19.3497 24.7471 20.5831 24.2362C21.8165 23.7253 22.8707 22.8601 23.6124 21.7501C24.3541 20.6401 24.75 19.335 24.75 18C24.75 16.2098 24.0388 14.4929 22.773 13.227C21.5071 11.9612 19.7902 11.25 18 11.25ZM18 22.5C17.11 22.5 16.24 22.2361 15.4999 21.7416C14.7599 21.2471 14.1831 20.5443 13.8425 19.7221C13.5019 18.8998 13.4128 17.995 13.5865 17.1221C13.7601 16.2492 14.1887 15.4474 14.818 14.818C15.4474 14.1887 16.2492 13.7601 17.1221 13.5865C17.995 13.4128 18.8998 13.5019 19.7221 13.8425C20.5443 14.1831 21.2471 14.7599 21.7416 15.4999C22.2361 16.24 22.5 17.11 22.5 18C22.4963 19.1923 22.021 20.3348 21.1779 21.1779C20.3348 22.021 19.1923 22.4963 18 22.5ZM24.1875 3.9375H11.8125C9.72392 3.9375 7.72088 4.76719 6.24403 6.24403C4.76719 7.72088 3.9375 9.72392 3.9375 11.8125V24.1875C3.9375 26.2761 4.76719 28.2791 6.24403 29.756C7.72088 31.2328 9.72392 32.0625 11.8125 32.0625H24.1875C26.2761 32.0625 28.2791 31.2328 29.756 29.756C31.2328 28.2791 32.0625 26.2761 32.0625 24.1875V11.8125C32.0625 9.72392 31.2328 7.72088 29.756 6.24403C28.2791 4.76719 26.2761 3.9375 24.1875 3.9375ZM29.8125 24.1875C29.8125 24.9262 29.667 25.6576 29.3843 26.3401C29.1016 27.0226 28.6873 27.6426 28.165 28.165C27.6426 28.6873 27.0226 29.1016 26.3401 29.3843C25.6576 29.667 24.9262 29.8125 24.1875 29.8125H11.8125C11.0738 29.8125 10.3424 29.667 9.65991 29.3843C8.97745 29.1016 8.35735 28.6873 7.83502 28.165C7.31269 27.6426 6.89836 27.0226 6.61568 26.3401C6.33299 25.6576 6.1875 24.9262 6.1875 24.1875V11.8125C6.1875 10.3207 6.78013 8.88992 7.83502 7.83502C8.88992 6.78013 10.3207 6.1875 11.8125 6.1875H24.1875C24.9262 6.1875 25.6576 6.33299 26.3401 6.61568C27.0226 6.89836 27.6426 7.31269 28.165 7.83502C28.6873 8.35735 29.1016 8.97745 29.3843 9.65991C29.667 10.3424 29.8125 11.0738 29.8125 11.8125V24.1875ZM27 10.6875C27 11.0213 26.901 11.3475 26.7156 11.625C26.5302 11.9025 26.2666 12.1188 25.9583 12.2465C25.6499 12.3743 25.3106 12.4077 24.9833 12.3426C24.6559 12.2775 24.3553 12.1167 24.1193 11.8807C23.8833 11.6447 23.7225 11.3441 23.6574 11.0167C23.5923 10.6894 23.6257 10.3501 23.7535 10.0417C23.8812 9.73337 24.0975 9.46982 24.375 9.28439C24.6525 9.09897 24.9787 9 25.3125 9C25.7601 9 26.1893 9.17779 26.5057 9.49426C26.8222 9.81072 27 10.2399 27 10.6875Z" fill="#98A2B3"/>
</svg>
