<svg width="36" height="36" viewBox="0 0 36 36" fill="none" xmlns="http://www.w3.org/2000/svg">
<path d="M34.7906 9.68913C34.7046 9.48437 34.5598 9.30968 34.3746 9.18706C34.1894 9.06443 33.9721 8.99937 33.75 9.00006H29.475C28.962 8.10501 28.2498 7.34006 27.3937 6.76444C26.5376 6.18883 25.5604 5.818 24.5379 5.68067C23.5155 5.54334 22.4751 5.64321 21.4974 5.97253C20.5198 6.30185 19.631 6.85179 18.9 7.57975C18.26 8.2038 17.7511 8.94948 17.4034 9.77297C17.0556 10.5965 16.876 11.4812 16.875 12.3751V13.2329C11.1516 11.7423 6.46875 7.12975 6.42656 7.0735C6.27947 6.92878 6.0954 6.82731 5.8945 6.78019C5.6936 6.73306 5.48361 6.7421 5.2875 6.80631C5.09202 6.86853 4.91696 6.98237 4.78083 7.13584C4.64469 7.2893 4.55252 7.47668 4.51406 7.67819C3.29063 14.4563 5.32969 18.9985 7.25625 21.6141C8.22256 22.9368 9.39536 24.0953 10.7297 25.0454C8.57813 27.4782 5.25938 28.7438 5.23125 28.7579C5.07255 28.8167 4.92917 28.9106 4.81181 29.0326C4.69444 29.1546 4.60611 29.3015 4.55339 29.4623C4.50068 29.6232 4.48494 29.7938 4.50735 29.9616C4.52975 30.1294 4.58973 30.2899 4.68281 30.4313C4.79531 30.6001 5.21719 31.1485 6.24375 31.6688C7.52344 32.3016 9.21094 32.6251 11.25 32.6251C21.1641 32.6251 29.4609 24.9891 30.3047 15.1594L34.5516 10.9266C34.7042 10.764 34.8076 10.5614 34.8499 10.3424C34.8922 10.1234 34.8717 9.89693 34.7906 9.68913ZM28.4203 13.8657C28.2243 14.0601 28.1088 14.3212 28.0969 14.5969C27.5203 23.4423 20.1234 30.3751 11.25 30.3751C9.75938 30.3751 8.71875 30.1782 7.9875 29.9391C9.60469 29.0673 11.8547 27.5485 13.3172 25.3688C13.4021 25.2369 13.4584 25.0887 13.4827 24.9337C13.5069 24.7787 13.4984 24.6203 13.4578 24.4688C13.4169 24.3157 13.3445 24.1729 13.2452 24.0494C13.1459 23.9259 13.022 23.8245 12.8813 23.7516C12.8672 23.7376 10.7859 22.6548 9 20.1938C6.975 17.4094 6.11719 14.0204 6.45469 10.111C8.67656 11.9391 12.9234 14.9204 17.8172 15.736C17.9788 15.762 18.1441 15.7528 18.3018 15.7091C18.4596 15.6654 18.606 15.5883 18.7312 15.4829C18.8537 15.3758 18.9521 15.2439 19.0199 15.0961C19.0878 14.9483 19.1236 14.7877 19.125 14.6251V12.3751C19.1271 11.3429 19.484 10.3428 20.1358 9.54244C20.7876 8.7421 21.6948 8.19018 22.7052 7.9792C23.7156 7.76822 24.7678 7.91101 25.6854 8.38363C26.6031 8.85624 27.3303 9.62996 27.7453 10.5751C27.835 10.7761 27.981 10.9468 28.1657 11.0666C28.3504 11.1864 28.5658 11.2501 28.7859 11.2501H31.0359L28.4203 13.8657Z" fill="#98A2B3"/>
</svg>
